<?xml version="1.0" encoding="utf-8"?>
<!-- Svg Vector Icons : http://www.onlinewebfonts.com/icon -->
<!DOCTYPE svg PUBLIC "-//W3C//DTD SVG 1.1//EN" "http://www.w3.org/Graphics/SVG/1.1/DTD/svg11.dtd">
<svg version="1.1" xmlns="http://www.w3.org/2000/svg" xmlns:xlink="http://www.w3.org/1999/xlink" x="0px" y="0px" viewBox="0 0 256 256" enable-background="new 0 0 256 256" xml:space="preserve">
<metadata> Svg Vector Icons : http://www.onlinewebfonts.com/icon </metadata>
<g><g><g><path fill="#ffffff" d="M123.5,10.6c-4.6,1.7-7.9,5.1-9.4,9.7c-0.7,2-0.7,6.5-0.6,42.2l0.1,39.9l1.2,2.3c1.4,3,4.2,5.7,7.2,7.2c3.3,1.6,9.1,1.6,12.5,0c2.9-1.4,5.7-4.2,7.2-7.2l1.2-2.3V61.6V20.7l-1.2-2.3c-1.5-3-4.2-5.7-7.2-7.1C131.3,9.9,126.4,9.6,123.5,10.6z"/><path fill="#ffffff" d="M78.7,52.4c-1.8,0.5-9.1,5.1-13.8,8.8c-36.8,28.4-50,77.7-32.5,120.7c9.4,23.2,27.4,42.6,49.8,53.5c10.2,5,18.3,7.6,29.8,9.6c8.3,1.4,24,1.4,32.3,0c11.2-1.9,19.4-4.5,29.3-9.3c26.5-12.9,47.1-37.9,54.5-66.3c2.4-9.4,3.1-15.3,3.2-26.3c0-11.2-0.5-15.8-3-25.8c-6.4-25.5-23.7-48.9-46.3-62.5c-4.7-2.8-6.6-3.1-8.3-1.5c-1,1-1,1.3-1.2,14.1c-0.2,16.1-0.4,15.2,6.3,22.2c6.1,6.3,8,8.7,11.3,13.6c5.2,8,8.4,16.1,10.5,25.8c1.5,7.1,1.5,20.2,0,27.6c-3,14.9-9.9,27.9-20.4,38.4c-10.7,10.7-24,17.7-39.4,20.7c-6.4,1.2-19.6,1.1-26.4-0.2c-48.4-9.6-74-61.6-52.2-105.6c3.6-7.2,7.2-12,15.1-20.3c4.2-4.5,5.4-6,5.9-7.6c0.4-1.5,0.5-5.7,0.4-14.8c-0.1-11.6-0.2-12.9-1-13.7C81.8,52.3,80.3,51.9,78.7,52.4z"/></g></g></g>
</svg>